<?xml version="1.0" encoding="utf-8"?>
<!-- Generator: Adobe Illustrator 22.0.0, SVG Export Plug-In . SVG Version: 6.00 Build 0)  -->
<svg version="1.1" id="Layer_1" xmlns="http://www.w3.org/2000/svg" xmlns:xlink="http://www.w3.org/1999/xlink" x="0px" y="0px"
	 viewBox="0 0 367 558.6" style="enable-background:new 0 0 367 558.6;" xml:space="preserve">
<style type="text/css">
	.st0{fill:#FF0000;}
	.st1{fill:#FFFFFF;}
	.st2{fill-rule:evenodd;clip-rule:evenodd;}
	.st3{fill:#EDEFEE;}
	.st4{fill:#0D6633;}
	.st5{fill-rule:evenodd;clip-rule:evenodd;fill:#FFCC00;}
</style>
<path class="st0" d="M342.6,64.2v276.5c0,68-41.7,111.4-95,130.5c-20.7,7.4-43,11-65.4,11c-22.4,0-44.8-3.7-65.4-11
	c-53.3-19-95-62.5-95-130.5V64.2v-1.3l1.1-0.7c43.8-27.3,101.6-41.6,159.8-41.6c56.6,0,113.7,13.5,158.8,41.6l1.1,0.7V64.2
	L342.6,64.2z"/>
<path class="st1" d="M337.9,340.7V65.5C293.8,38.3,238,25.3,182.7,25.3c-56.9,0-113.4,13.8-156.3,40.2v275.2
	c0,65.7,40.3,107.7,91.9,126.1c20.1,7.2,42,10.8,63.9,10.8c21.9,0,43.7-3.6,63.9-10.8C297.6,448.3,337.9,406.3,337.9,340.7
	L337.9,340.7z M173.4,278.4c46.3-3,23.7-54.3-4-34.4l-5.9-10.4c9.4-5.3,41.7-2.7,47.8,13.3c14.6,38.6,27.1,28,19.6,13.4
	c-30.2-58.7,36-23.8,47-4l-12.3-5.1c24.3,22.8,35.9,44.5,45.9,71.2c-20.4-28-34.2-42.5-54.4-54.7c38,68.1,53.4,168-49.3,185.1
	c45.1-28.3,59.9-49.7,57.9-100.2l-5.3,20.7l-2.1-21.7H254c0.2,66.6-45.8,127.3-136.7,93.3c75.6,7.1,87.2-7.8,113.4-52.5
	c-0.4,0.2-0.8,0.3-1.1,0.5c2.4-5.2,3.8-11,3.8-17.1c0-22.3-18.2-40.5-40.5-40.5c-15.8,0-29.6,9.2-36.2,22.5
	c-131.5,9.7-87-162.9,31.7-158.8C10,284,176.8,368.5,173.4,278.4L173.4,278.4z M175.8,412.4c-12.2,2.4-24.7,2.5-41-0.5
	c13.3-3.3,23-4.7,30.5-6.6C168.4,408.2,171.9,410.6,175.8,412.4L175.8,412.4z M329.6,74.8v260.8c0,177.5-294.8,177.5-294.8,0V74.8
	l0-1.2l1-0.6c82.8-53.1,210-53,292.8,0l1,0.6V74.8L329.6,74.8z M325.3,335.6V76C244.1,24.7,120.2,24.7,39,76v259.6
	C39,507.3,325.3,507.3,325.3,335.6L325.3,335.6z"/>
<path class="st2" d="M77.9,176.7l7.9-0.5c0.2,1.3,0.5,2.2,1,2.9c0.8,1.1,2.1,1.6,3.6,1.6c1.2,0,2.1-0.3,2.7-0.8c0.6-0.6,1-1.2,1-1.9
	c0-0.7-0.3-1.3-0.9-1.9c-0.6-0.5-2-1.1-4.2-1.6c-3.6-0.8-6.2-1.9-7.8-3.2c-1.6-1.4-2.3-3.1-2.3-5.2c0-1.4,0.4-2.7,1.2-3.9
	c0.8-1.2,2-2.2,3.6-2.9c1.6-0.7,3.8-1,6.6-1c3.4,0,6,0.6,7.8,1.9c1.8,1.3,2.9,3.3,3.2,6.1l-7.8,0.5c-0.2-1.2-0.6-2.1-1.3-2.6
	c-0.7-0.5-1.6-0.8-2.7-0.8c-1,0-1.7,0.2-2.2,0.6c-0.5,0.4-0.7,0.9-0.7,1.5c0,0.4,0.2,0.8,0.6,1.1c0.4,0.4,1.3,0.7,2.8,1
	c3.6,0.8,6.2,1.6,7.8,2.4c1.6,0.8,2.7,1.8,3.4,3c0.7,1.2,1.1,2.5,1.1,4c0,1.7-0.5,3.3-1.4,4.7c-0.9,1.5-2.3,2.5-4,3.3
	c-1.7,0.7-3.8,1.1-6.4,1.1c-4.5,0-7.7-0.9-9.4-2.6C79.1,181.6,78.1,179.4,77.9,176.7L77.9,176.7z M87,75.2l16.6-3.3v40.5
	c0,4.5-0.5,8.7-1.5,12.6c-1,3.9-2.5,7.4-4.7,10.4c-2.1,3-4.3,5-6.7,6.2c-3.2,1.7-7.1,2.5-11.6,2.5c-2.6,0-5.5-0.2-8.6-0.8
	c-3.1-0.5-5.7-1.5-7.7-3.1c-2.1-1.5-4-3.7-5.7-6.5c-1.7-2.8-2.9-5.7-3.5-8.7c-1-4.8-1.5-9-1.5-12.7V88.3l16.6-7.4v32.5
	c0,4.1,0.8,7.3,2.4,9.6c1.6,2.3,3.9,3.5,6.8,3.5c2.9,0,5.1-1.1,6.7-3.4c1.6-2.3,2.4-5.5,2.4-9.7V75.2L87,75.2z M112.2,70.3l15.5-1.2
	l20.2,40.1V66.6h15.7v76.2H148l-20.1-41.4v41.4h-15.6V70.3L112.2,70.3z M172.8,66.6h16.6v76.2h-16.6V66.6L172.8,66.6z M232,130.4
	H213l-2.6,12.4h-17l20.2-75.4l18.1,1.2l20.2,74.2h-17.4L232,130.4L232,130.4z M228.5,114.1L222.5,87l-5.9,27.1H228.5L228.5,114.1z
	 M229.6,47.6h5.8c0,0.9,0,1.7,0,2.3c0,3.8-0.7,6.8-2.1,8.8c-1.4,2.1-3.1,3.1-5.3,3.1c-1.6,0-3.9-0.9-7.1-2.7c-1.9-1.1-3.3-1.7-4-1.7
	c-0.7,0-1.3,0.3-1.7,0.9c-0.4,0.6-0.6,1.7-0.6,3.3H209c0-0.8,0-1.5,0-2.2c0-3.7,0.7-6.6,2.2-8.7c1.4-2.2,3.2-3.2,5.1-3.2
	c0.9,0,1.7,0.1,2.4,0.4c0.7,0.3,2.2,1,4.2,2.2c2,1.2,3.5,1.8,4.5,1.8c0.7,0,1.2-0.3,1.6-0.9C229.3,50.4,229.6,49.2,229.6,47.6
	L229.6,47.6z M252.7,109.7c0-12.3,2.5-18.6,7.3-25.5c4.9-6.9,11.7-10.3,20.4-10.3c8.9,0,15.8,3.4,20.7,10.1c4.8,6.7,7.3,12.9,7.3,25
	c0,8.8-1.1,11.5-3.2,17.2c-2.1,5.6-5.2,10-9.2,13.2c-4,3.1-9,4.7-14.9,4.7c-6.1,0-11.1-1.4-15.1-4.1c-4-2.7-7.2-7-9.7-12.9
	C253.9,121.3,252.7,118.5,252.7,109.7L252.7,109.7z M269.3,109.8c0,7.6,1,8.6,3,11.9c2,3.3,4.8,5,8.2,5c3.6,0,6.3-1.6,8.3-4.9
	c2-3.3,2.9-4.6,2.9-13c0-7.1-1-9-3.1-12.3c-2-3.3-4.8-4.9-8.3-4.9c-3.3,0-6,1.7-8.1,5C270.3,99.9,269.3,102.1,269.3,109.8
	L269.3,109.8z M121.6,181.1h-9.4l-1.3,4.4h-8.4l10.1-26.8h9l10.1,26.8h-8.7L121.6,181.1L121.6,181.1z M119.8,175.4l-3-9.6l-2.9,9.6
	H119.8L119.8,175.4z M120.6,152.2h2.9c0,0.3,0,0.6,0,0.8c0,1.4-0.3,2.4-1,3.1c-0.7,0.7-1.6,1.1-2.6,1.1c-0.8,0-2-0.3-3.5-1
	c-1-0.4-1.6-0.6-2-0.6c-0.4,0-0.6,0.1-0.8,0.3c-0.2,0.2-0.3,0.6-0.3,1.2h-2.8c0-0.3,0-0.5,0-0.8c0-1.3,0.4-2.3,1.1-3.1
	c0.7-0.8,1.6-1.2,2.6-1.2c0.4,0,0.8,0,1.2,0.1c0.4,0.1,1.1,0.4,2.1,0.8c1,0.4,1.8,0.6,2.2,0.6c0.3,0,0.6-0.1,0.8-0.3
	C120.5,153.2,120.6,152.8,120.6,152.2L120.6,152.2z M131.9,172.2c0-4.4,1.2-7.8,3.6-10.2c2.4-2.4,5.8-3.6,10.2-3.6
	c4.5,0,7.9,1.2,10.3,3.6c2.4,2.4,3.6,5.7,3.6,10c0,3.1-0.5,5.7-1.6,7.7c-1.1,2-2.6,3.6-4.6,4.7c-2,1.1-4.5,1.7-7.4,1.7
	c-3,0-5.5-0.5-7.5-1.4c-2-1-3.6-2.5-4.8-4.6C132.5,177.9,131.9,175.3,131.9,172.2L131.9,172.2z M140.1,172.2c0,2.7,0.5,4.6,1.5,5.8
	c1,1.2,2.4,1.8,4.1,1.8c1.8,0,3.2-0.6,4.1-1.7c1-1.2,1.5-3.2,1.5-6.2c0-2.5-0.5-4.4-1.5-5.5c-1-1.2-2.4-1.7-4.1-1.7
	c-1.7,0-3,0.6-4,1.8C140.7,167.6,140.1,169.5,140.1,172.2L140.1,172.2z M187.6,158.8h8.3v14.5c0,3.1-0.3,5.4-0.8,7
	c-0.5,1.6-1.6,2.9-3.3,4.1c-1.6,1.1-3.7,1.7-6.3,1.7c-2.7,0-4.8-0.4-6.3-1.1c-1.5-0.7-2.6-1.8-3.4-3.2c-0.8-1.4-1.3-3.1-1.4-5.2
	l7.9-1.1c0,1.2,0.1,2.1,0.3,2.6c0.2,0.6,0.5,1,1,1.4c0.3,0.2,0.8,0.3,1.4,0.3c0.9,0,1.6-0.3,2-1c0.4-0.7,0.6-1.8,0.6-3.5V158.8
	L187.6,158.8z M199.1,172.2c0-4.4,1.2-7.8,3.7-10.2c2.4-2.4,5.8-3.6,10.2-3.6c4.5,0,7.9,1.2,10.3,3.6c2.4,2.4,3.6,5.7,3.6,10
	c0,3.1-0.5,5.7-1.6,7.7c-1.1,2-2.6,3.6-4.6,4.7c-2,1.1-4.5,1.7-7.4,1.7c-3,0-5.5-0.5-7.5-1.4c-2-1-3.6-2.5-4.8-4.6
	C199.8,177.9,199.1,175.3,199.1,172.2L199.1,172.2z M207.4,172.2c0,2.7,0.5,4.6,1.5,5.8c1,1.2,2.4,1.8,4.1,1.8
	c1.8,0,3.2-0.6,4.1-1.7c1-1.2,1.5-3.2,1.5-6.2c0-2.5-0.5-4.4-1.5-5.5c-1-1.2-2.4-1.7-4.1-1.7c-1.7,0-3,0.6-4,1.8
	C207.9,167.6,207.4,169.5,207.4,172.2L207.4,172.2z M245.3,181.1h-9.4l-1.3,4.4h-8.4l10.1-26.8h9l10.1,26.8h-8.7L245.3,181.1
	L245.3,181.1z M243.5,175.4l-3-9.6l-2.9,9.6H243.5L243.5,175.4z M254.9,172.2c0-4.4,1.2-7.8,3.6-10.2c2.4-2.4,5.8-3.6,10.2-3.6
	c4.5,0,7.9,1.2,10.3,3.6c2.4,2.4,3.6,5.7,3.6,10c0,3.1-0.5,5.7-1.6,7.7c-1.1,2-2.6,3.6-4.6,4.7c-2,1.1-4.5,1.7-7.4,1.7
	c-3,0-5.5-0.5-7.5-1.4c-2-1-3.6-2.5-4.8-4.6C255.5,177.9,254.9,175.3,254.9,172.2L254.9,172.2z M263.2,172.2c0,2.7,0.5,4.6,1.5,5.8
	c1,1.2,2.4,1.8,4.1,1.8c1.8,0,3.2-0.6,4.1-1.7c1-1.2,1.5-3.2,1.5-6.2c0-2.5-0.5-4.4-1.5-5.5c-1-1.2-2.4-1.7-4.1-1.7
	c-1.7,0-3,0.6-4,1.8C263.7,167.6,263.2,169.5,263.2,172.2L263.2,172.2z"/>
<g>
	<path class="st3" d="M140.1,529.5c-2-2.2-3.3-4.3-4.7-6.6c-1.3-2.1-2.6-4.2-4.5-6.5c-0.3-0.4-0.7-0.7-1.1-1.1
		c0.8-0.5,1.5-1.1,2.2-1.7c2-2,3.7-4.6,4.8-7.8c1.1-3.2,2.3-6.9,1.7-11.2c-2.2-14.9-24.1-18.5-35.9-20.4c-2.3-0.4-4.4-0.7-5.5-1
		l-2.5-0.7v61.9h17.7v-14.1c2,1.8,5.5,6.4,7.3,8.9c1.6,2.1,2.8,3.8,3.6,4.6l0.6,0.6h15.5l1.6-4L140.1,529.5z M120.9,501.8
		c-1.8,3.5-9,1.2-9,1.2l0.1-11.5C118.5,491.2,122.7,498.3,120.9,501.8z"/>
	<path class="st4" d="M231.2,399.7c-2.7,0.8-5.3,1.7-7.8,2.5c-7.4,8.5-18.4,13.9-30.5,13.9c-3.3,0-6.6-0.4-9.7-1.2
		c-44.6,12.9-73.7,11.9-124.8-36.5C103.8,463.1,190.2,464.2,231.2,399.7z"/>
	<path class="st3" d="M78.1,534.4l-2.2-11.8H63.7l-2.1,11.8H43.4l17.7-76.2l19.8,7.7l15.7,68.5H78.1z M72.3,503.1l-2.5-13l-2.5,13
		H72.3z"/>
	<path class="st4" d="M62.5,460.9l-16.6,71.5h14l2.1-11.8h15.6l2.2,11.8h14.3l-14.9-65L62.5,460.9z M65,505.1l4.9-25.7l4.9,25.7H65z
		"/>
	<path class="st4" d="M179.6,253.4c1.9,0,3.5-1.6,3.5-3.5c0-1.9-1.6-3.5-3.5-3.5s-3.5,1.6-3.5,3.5
		C176.1,251.8,177.7,253.4,179.6,253.4z"/>
	<path class="st4" d="M171.9,276.3c-3.8-7.5,1.2-14.5-2.8-22.7c-4.6,8.8-4.7,8.5-12.5,9.9C156.3,271.5,161.7,278.2,171.9,276.3z"/>
	<path class="st3" d="M298.9,535.6c-9.3,0-15.1-2.8-17.5-8.2l-4.3-10.1l17.1-4.4l0.7,1.5c1.4,2.9,3.1,3.2,4.2,3.2
		c1.3,0,2.2-0.4,2.9-1.4c0.8-1.1,1.2-2.4,1.2-4c0-1.5-0.4-2.7-1.2-3.8c-0.4-0.6-1.8-1.9-6-3.4c-6.4-2.3-11-5.5-13.8-9.4
		c-2.8-3.9-4.2-9-4.2-15c0-3.9,0.7-7.6,2.1-11.2c3.9-9.8,25.1-21.7,33.2-21.7c1.6,0,2.8,0.4,3.6,1.3c0.5,0.5,1,1.5,0.9,2.9
		l-1.1,10.9l-4-0.1c0,1.1,0.9,1.8,1.8,1.8c-2.6,0.3-16.8,7.5-17.3,10.3c-0.1,0.8-0.4,1.5-0.7,2.1c-0.3,0.6-0.5,1.1-0.5,1.6
		c0,0.7,0.2,1.3,0.6,1.9c0.1,0.2,0.2,0.4,0.4,0.5c0.4,0.6,0.6,0.9,1.9,1.4c6.1,2.1,10.7,4.4,13.5,6.7c2.9,2.4,5,5.3,6.3,8.8
		c1.3,3.4,1.9,7.2,1.9,11.3c0,4.8-0.8,9.3-2.5,13.4c-1.7,4.2-4.2,7.5-7.3,9.7C307.5,534.5,303.5,535.6,298.9,535.6z"/>
	<path class="st4" d="M316.7,498.6c-1.2-3.2-3.1-5.8-5.7-7.9c-2.6-2.1-6.9-4.3-12.8-6.3c-2.4-0.8-2.6-1.7-3.3-2.6
		c-0.6-0.9-1-1.9-1-3.1c0-1.6,1-2.6,1.2-4c0.8-4.7,19.5-13.1,19.5-11.9c0.4-3.6,0.7-7.3,1.1-10.9c0.7-7.5-29.5,7.3-33.8,18.4
		c-1.3,3.3-2,6.7-2,10.4c0,5.6,1.3,10.2,3.9,13.8c2.6,3.6,6.8,6.5,12.8,8.7c3.7,1.3,6,2.7,7,4.1c1,1.5,1.5,3.1,1.5,5
		c0,1.9-0.5,3.7-1.6,5.1c-1.1,1.5-2.6,2.2-4.5,2.2c-2.6,0-4.6-1.4-6-4.3l-13.2,3.4l3.4,8c2.2,5.1,8.1,7,15.6,7c4.3,0,7.8-1,10.7-3
		c2.8-2,5-4.9,6.6-8.8c1.6-3.9,2.4-8.1,2.4-12.7C318.5,505.2,317.9,501.7,316.7,498.6z"/>
	<path class="st3" d="M170.6,534.4l-2.2-5.3h-12.9l-2.1,5.3h-14l-0.6-0.6c-0.5-0.5-1.1-1.1-1.6-1.7l-0.8-0.9l17-42.6l18.1,1
		l17.8,44.8H170.6z M164,515.6l-2-5.2l-2,5.2H164z"/>
	<path class="st4" d="M154.7,490.6l-16,40.2c0.5,0.5,1,1.1,1.5,1.6H152l2.1-5.3h15.6l2.2,5.3h14.3L170,491.5L154.7,490.6z
		 M157.1,517.6l4.9-12.8l4.9,12.8H157.1z"/>
	<path class="st3" d="M215.4,534.4l-0.5-1.4c-0.1-0.4-0.3-0.9-0.4-1.3c-1.6-4.9-3.2-9-7-9.5v12.2h-17.7V490l1.4-0.4
		c5.6-1.6,11.6-2.5,17.4-2.5c12.2,0,21.1,3.8,23.9,10.1c1.7,3.8,1.8,10.3-6.9,19.7c-0.7,0.8-1.5,1.2-2.3,1.4c5,2.9,7.7,5.3,9.7,10.2
		l0.3,0.7l-1.7,5.2H215.4z M207.5,508.9c6.4-0.4,8.6-2.6,8.6-3.4c0-0.4-0.6-1.2-2-1.8c-1.2-0.6-3.3-1.2-6.7-1.4V508.9z"/>
	<path class="st4" d="M218,517.7c2.3-1.5,4.6-0.5,6.1-2.1c21.1-22.6-8.1-31-32.3-24v40.9h13.7v-12.2h1.2c6.8,0,8.6,7.7,10.1,12.2
		h13.3l1-3.1C228.8,523.7,225.8,521.9,218,517.7z M205.5,511v-10.7C222.7,500.3,221.9,511,205.5,511z"/>
	<path class="st3" d="M263.8,534.4l-2.2-8.4h-13.8l-2.1,8.4h-14.8l-0.4-1.4c-0.3-1.1-0.7-2.1-1.1-2.9l-0.3-0.7l16.1-49.2l20.4-9.1
		l17.5,63.3H263.8z M258.1,511.3l-2.9-11.4l-3.3,11.4H258.1z"/>
	<path class="st4" d="M246.8,481.6l-15.6,47.7c0.4,0.9,0.8,1.9,1.1,3.1h11.8l2.1-8.4h16.9l2.2,8.4h15.2l-16.2-58.6L246.8,481.6z
		 M249.2,513.3l6.2-21l5.3,21H249.2z"/>
	<path class="st4" d="M125.9,515.1c2-0.7,3.6-1.7,4.8-2.8c1.8-1.8,3.3-4.1,4.3-7c1-2.9,2.1-6.3,1.6-10.3c-2.4-16.4-33-17.9-40-19.8
		v57.3h13.7v-14.8h1.2c2.8,0,10.7,12.2,13.1,14.8H138l0.6-1.6c-4-4.5-5.4-8.7-9.2-13.1C128.7,516.8,127.5,515.9,125.9,515.1z
		 M110.3,504.1v-14.5C121,486.5,133.9,509.8,110.3,504.1z"/>
</g>
<path class="st5" d="M254.5,263.6c50.4,37.8,44,62.2,42.9,124C287.3,345.7,274.7,300.6,254.5,263.6L254.5,263.6z M179.6,246.4
	c1.9,0,3.5,1.6,3.5,3.5c0,1.9-1.6,3.5-3.5,3.5c-1.9,0-3.5-1.6-3.5-3.5C176.1,248,177.7,246.4,179.6,246.4L179.6,246.4z M181.7,241.8
	c8.5-1.5,15,7.2,15.6,15.9c0.9,13.8-19.1,19.2-23,17.3c-3.2-3.2-0.1-12.8-2-18.9C169.9,248,166.3,244.5,181.7,241.8L181.7,241.8z
	 M161.8,236l6.9,14.8c-13.5,12.6-14.3,3.1-17,28.1C134.8,263.5,148.2,235.2,161.8,236L161.8,236z M161.3,401
	c-16.8,2.3-33,1.7-48.8-1.3l9.5-5.3l-28.6-6.4l22.3-3.7c-54.2-10.4-59.2-41.8-62-76.8l12.7,12.2c-10.4-54,11.1-79,42.9-102.8
	c-67.7,89.7-16.6,130.4,54,131.1c-6.8,7.2-11,17-11,27.7C152.4,385.3,155.8,394.1,161.3,401L161.3,401z M215.2,342
	c0.7-0.2,1.5-0.3,2.2-0.5l-0.4,1.8C216.5,342.8,215.9,342.4,215.2,342L215.2,342z"/>
<path class="st2" d="M192.9,335.1c22.3,0,40.6,18.2,40.6,40.6c0,22.3-18.2,40.6-40.6,40.6c-22.3,0-40.6-18.2-40.6-40.6
	C152.4,353.4,170.6,335.1,192.9,335.1L192.9,335.1z M182.9,339.3l9.9-1.5l9.9,1.1l-0.3,3.5l-9.3,4.5l-10.1-3.8L182.9,339.3
	L182.9,339.3z M207.5,412l8.6-5l7-7.1l-2.5-2.5l-10.1,2.3l-5.5,9.3L207.5,412L207.5,412z M179.7,412l-8.6-5l-7-7.1l2.5-2.5l10.1,2.3
	l5.5,9.3L179.7,412L179.7,412z M231.1,373.8l-1.8-9.8l-4.3-9l-3.2,1.5l-1.2,10.3l6.8,8.3L231.1,373.8L231.1,373.8z M154.1,373.8
	l1.8-9.8l4.3-9l3.2,1.5l1.2,10.3l-6.8,8.3L154.1,373.8L154.1,373.8z M224.9,378.8l-5,14.7l-9.7,4.9l-5.5-9.3l5.5-15.3l8.3-4.3
	L224.9,378.8L224.9,378.8z M161.1,378.8l5,14.7l9.7,4.9l5.5-9.3l-5.5-15.3l-8.3-4.3L161.1,378.8L161.1,378.8z M185.1,390.6l15.5-0.2
	l7.8,7.5l-6.9,8.3l-16.2,0l-6.8-6.4L185.1,390.6L185.1,390.6z M218.1,356.4l-12.2-9.5l-10.8,1.2l0.5,10.8l13,9.8l9.3-1L218.1,356.4
	L218.1,356.4z M168,356.4l12.2-9.5l10.8,1.2l-0.5,10.8l-13,9.8l-9.3-1L168,356.4L168,356.4z"/>
</svg>
